<mxfile host="app.diagrams.net" modified="2022-05-09T08:31:45.628Z" agent="5.0 (Macintosh; Intel Mac OS X 10_15_3) AppleWebKit/537.36 (KHTML, like Gecko) Chrome/101.0.4951.54 Safari/537.36" etag="6lL0jm4U-V2GwFC3BGfw" version="17.4.6" type="github">
  <diagram id="0QxMf9gSCAv1vqsq4knW" name="Page-1">
    <mxGraphModel dx="1186" dy="623" grid="1" gridSize="10" guides="1" tooltips="1" connect="1" arrows="1" fold="1" page="1" pageScale="1" pageWidth="827" pageHeight="1169" math="0" shadow="0">
      <root>
        <mxCell id="0" />
        <mxCell id="1" parent="0" />
        <mxCell id="4VdLajxk7bhCev_ChRC8-2" value="创建" style="swimlane;horizontal=0;" vertex="1" parent="1">
          <mxGeometry x="10" y="80" width="970" height="440" as="geometry">
            <mxRectangle x="110" y="80" width="30" height="50" as="alternateBounds" />
          </mxGeometry>
        </mxCell>
        <mxCell id="4VdLajxk7bhCev_ChRC8-3" value="分页查询" style="swimlane;horizontal=0;" vertex="1" parent="1">
          <mxGeometry x="10" y="600" width="970" height="440" as="geometry">
            <mxRectangle x="110" y="80" width="30" height="50" as="alternateBounds" />
          </mxGeometry>
        </mxCell>
      </root>
    </mxGraphModel>
  </diagram>
</mxfile>
